<svg width="20" height="19" viewBox="0 0 20 19" fill="none" xmlns="http://www.w3.org/2000/svg">
<path d="M4.19543 6.0469H0.666016L5.3719 0.164551L10.0778 6.0469H6.54837V15.4587C6.54837 15.7707 6.42442 16.0699 6.20379 16.2906C5.98316 16.5112 5.68392 16.6351 5.3719 16.6351C5.05988 16.6351 4.76064 16.5112 4.54001 16.2906C4.31938 16.0699 4.19543 15.7707 4.19543 15.4587V6.0469ZM13.6072 13.1057V3.69396C13.6072 3.38194 13.7311 3.0827 13.9518 2.86207C14.1724 2.64144 14.4716 2.51749 14.7837 2.51749C15.0957 2.51749 15.3949 2.64144 15.6156 2.86207C15.8362 3.0827 15.9601 3.38194 15.9601 3.69396V13.1057H19.4895L14.7837 18.9881L10.0778 13.1057H13.6072Z" fill="#647AA8"/>
</svg>
