<svg width="18" height="18" viewBox="0 0 18 18" fill="none" xmlns="http://www.w3.org/2000/svg">
<path d="M14.8337 0.666748H3.16699C2.50395 0.666748 1.86807 0.93014 1.39923 1.39898C0.930385 1.86782 0.666992 2.50371 0.666992 3.16675V4.14175C0.666873 4.48587 0.737798 4.82631 0.875326 5.14175V5.19175C0.993059 5.45922 1.15982 5.7023 1.36699 5.90841L6.50033 11.0084V16.5001C6.50004 16.6417 6.53586 16.7811 6.60438 16.905C6.67291 17.0289 6.7719 17.1334 6.89199 17.2084C7.02461 17.2906 7.17764 17.3339 7.33366 17.3334C7.46411 17.3326 7.59256 17.3012 7.70866 17.2417L11.042 15.5751C11.1794 15.5058 11.295 15.3999 11.3759 15.269C11.4568 15.1381 11.4999 14.9873 11.5003 14.8334V11.0084L16.6003 5.90841C16.8075 5.7023 16.9743 5.45922 17.092 5.19175V5.14175C17.241 4.82877 17.3233 4.48823 17.3337 4.14175V3.16675C17.3337 2.50371 17.0703 1.86782 16.6014 1.39898C16.1326 0.93014 15.4967 0.666748 14.8337 0.666748ZM10.0753 10.0751C9.99809 10.1529 9.93699 10.2453 9.89552 10.3468C9.85405 10.4484 9.83302 10.5571 9.83366 10.6667V14.3167L8.16699 15.1501V10.6667C8.16763 10.5571 8.14661 10.4484 8.10513 10.3468C8.06366 10.2453 8.00256 10.1529 7.92533 10.0751L3.50866 5.66675H14.492L10.0753 10.0751ZM15.667 4.00008H2.33366V3.16675C2.33366 2.94573 2.42146 2.73377 2.57774 2.57749C2.73402 2.42121 2.94598 2.33341 3.16699 2.33341H14.8337C15.0547 2.33341 15.2666 2.42121 15.4229 2.57749C15.5792 2.73377 15.667 2.94573 15.667 3.16675V4.00008Z" fill="#647AA8"/>
</svg>
