<svg width="20" height="20" viewBox="0 0 20 20" fill="none" xmlns="http://www.w3.org/2000/svg">
<path d="M10.0008 6C11.0617 6 12.0791 6.42143 12.8292 7.17157C13.5794 7.92172 14.0008 8.93913 14.0008 10C14.0008 11.0609 13.5794 12.0783 12.8292 12.8284C12.0791 13.5786 11.0617 14 10.0008 14C8.93995 14 7.92253 13.5786 7.17239 12.8284C6.42224 12.0783 6.00082 11.0609 6.00082 10C6.00082 8.93913 6.42224 7.92172 7.17239 7.17157C7.92253 6.42143 8.93995 6 10.0008 6ZM10.0008 8C9.47038 8 8.96168 8.21071 8.5866 8.58579C8.21153 8.96086 8.00082 9.46957 8.00082 10C8.00082 10.5304 8.21153 11.0391 8.5866 11.4142C8.96168 11.7893 9.47038 12 10.0008 12C10.5312 12 11.04 11.7893 11.415 11.4142C11.7901 11.0391 12.0008 10.5304 12.0008 10C12.0008 9.46957 11.7901 8.96086 11.415 8.58579C11.04 8.21071 10.5312 8 10.0008 8ZM8.00082 20C7.75082 20 7.54082 19.82 7.50082 19.58L7.13082 16.93C6.50082 16.68 5.96082 16.34 5.44082 15.94L2.95082 16.95C2.73082 17.03 2.46082 16.95 2.34082 16.73L0.340816 13.27C0.210816 13.05 0.270816 12.78 0.460816 12.63L2.57082 10.97L2.50082 10L2.57082 9L0.460816 7.37C0.270816 7.22 0.210816 6.95 0.340816 6.73L2.34082 3.27C2.46082 3.05 2.73082 2.96 2.95082 3.05L5.44082 4.05C5.96082 3.66 6.50082 3.32 7.13082 3.07L7.50082 0.42C7.54082 0.18 7.75082 0 8.00082 0H12.0008C12.2508 0 12.4608 0.18 12.5008 0.42L12.8708 3.07C13.5008 3.32 14.0408 3.66 14.5608 4.05L17.0508 3.05C17.2708 2.96 17.5408 3.05 17.6608 3.27L19.6608 6.73C19.7908 6.95 19.7308 7.22 19.5408 7.37L17.4308 9L17.5008 10L17.4308 11L19.5408 12.63C19.7308 12.78 19.7908 13.05 19.6608 13.27L17.6608 16.73C17.5408 16.95 17.2708 17.04 17.0508 16.95L14.5608 15.95C14.0408 16.34 13.5008 16.68 12.8708 16.93L12.5008 19.58C12.4608 19.82 12.2508 20 12.0008 20H8.00082ZM9.25082 2L8.88082 4.61C7.68082 4.86 6.62082 5.5 5.85082 6.39L3.44082 5.35L2.69082 6.65L4.80082 8.2C4.40082 9.37 4.40082 10.64 4.80082 11.8L2.68082 13.36L3.43082 14.66L5.86082 13.62C6.63082 14.5 7.68082 15.14 8.87082 15.38L9.24082 18H10.7608L11.1308 15.39C12.3208 15.14 13.3708 14.5 14.1408 13.62L16.5708 14.66L17.3208 13.36L15.2008 11.81C15.6008 10.64 15.6008 9.37 15.2008 8.2L17.3108 6.65L16.5608 5.35L14.1508 6.39C13.3808 5.5 12.3208 4.86 11.1208 4.62L10.7508 2H9.25082Z" fill="#647AA8"/>
</svg>
