<svg width="17" height="16" viewBox="0 0 17 16" fill="none" xmlns="http://www.w3.org/2000/svg">
<path d="M2.16667 0.5C1.24167 0.5 0.5 1.25 0.5 2.16667V13.8333C0.5 14.2754 0.675595 14.6993 0.988155 15.0118C1.30072 15.3244 1.72464 15.5 2.16667 15.5H13.8333C14.2754 15.5 14.6993 15.3244 15.0118 15.0118C15.3244 14.6993 15.5 14.2754 15.5 13.8333V11.9333C15.9917 11.6417 16.3333 11.1167 16.3333 10.5V5.5C16.3333 4.88333 15.9917 4.35833 15.5 4.06667V2.16667C15.5 1.72464 15.3244 1.30072 15.0118 0.988155C14.6993 0.675595 14.2754 0.5 13.8333 0.5H2.16667ZM2.16667 2.16667H13.8333V3.83333H8.83333C8.39131 3.83333 7.96738 4.00893 7.65482 4.32149C7.34226 4.63405 7.16667 5.05797 7.16667 5.5V10.5C7.16667 10.942 7.34226 11.3659 7.65482 11.6785C7.96738 11.9911 8.39131 12.1667 8.83333 12.1667H13.8333V13.8333H2.16667V2.16667ZM8.83333 5.5H14.6667V10.5H8.83333V5.5ZM11.3333 6.75C11.0018 6.75 10.6839 6.8817 10.4495 7.11612C10.215 7.35054 10.0833 7.66848 10.0833 8C10.0833 8.33152 10.215 8.64946 10.4495 8.88388C10.6839 9.1183 11.0018 9.25 11.3333 9.25C11.6649 9.25 11.9828 9.1183 12.2172 8.88388C12.4516 8.64946 12.5833 8.33152 12.5833 8C12.5833 7.66848 12.4516 7.35054 12.2172 7.11612C11.9828 6.8817 11.6649 6.75 11.3333 6.75Z" fill="#647AA8"/>
</svg>
