<svg width="20" height="14" viewBox="0 0 20 14" fill="none" xmlns="http://www.w3.org/2000/svg">
<path d="M12.5007 0.333252C14.2688 0.333252 15.9645 1.03563 17.2147 2.28587C18.4649 3.53612 19.1673 5.23181 19.1673 6.99992C19.1673 8.76803 18.4649 10.4637 17.2147 11.714C15.9645 12.9642 14.2688 13.6666 12.5007 13.6666C10.7325 13.6666 9.03685 12.9642 7.7866 11.714C6.53636 10.4637 5.83398 8.76803 5.83398 6.99992C5.83398 5.23181 6.53636 3.53612 7.7866 2.28587C9.03685 1.03563 10.7325 0.333252 12.5007 0.333252ZM12.5007 11.9999C13.8267 11.9999 15.0985 11.4731 16.0362 10.5355C16.9739 9.59777 17.5006 8.326 17.5006 6.99992C17.5006 5.67384 16.9739 4.40207 16.0362 3.46438C15.0985 2.5267 13.8267 1.99992 12.5007 1.99992C11.1746 1.99992 9.9028 2.5267 8.96512 3.46438C8.02743 4.40207 7.50065 5.67384 7.50065 6.99992C7.50065 8.326 8.02743 9.59777 8.96512 10.5355C9.9028 11.4731 11.1746 11.9999 12.5007 11.9999ZM2.50065 6.99992C2.50065 9.17492 3.89232 11.0249 5.83398 11.7083V13.4499C2.95898 12.7083 0.833984 10.1083 0.833984 6.99992C0.833984 3.89158 2.95898 1.29159 5.83398 0.549919V2.29158C3.89232 2.97492 2.50065 4.82492 2.50065 6.99992Z" fill="#647AA8"/>
</svg>
